<svg width="1500" height="1500" xmlns="http://www.w3.org/2000/svg">

 <g>
  <title>Layer 1</title>
  <line stroke="#000000" stroke-width="70" fill="none" id="svg_25" y2="917.33116" x2="568.35485" y1="1405.08164" x1="86.72677"/>
  <ellipse stroke-width="70" fill="none" ry="439.79176" rx="439.79176" id="svg_26" cy="565.29367" cx="848.96445" stroke="#000000"/>
  <g stroke="null">
   <path stroke="null" d="m1014.63761,848.15073c-35.16839,34.13021 -73.97041,28.80953 -110.95562,12.71772c-39.32111,-16.41624 -75.26814,-17.45442 -116.79539,0c-51.7144,22.3209 -79.16132,15.83226 -110.30675,-12.71772c-175.84194,-181.03285 -149.88741,-456.79973 49.96247,-467.18154c48.47009,2.59545 82.40563,26.79805 110.95562,28.80953c42.43566,-8.62988 83.0545,-33.35157 128.47492,-30.10726c54.5694,4.41227 95.3829,25.95453 122.63516,64.69167c-112.25334,67.48178 -85.64995,215.4226 17.45442,256.94985c-20.63385,54.18008 -47.10747,107.7113 -91.48972,147.29196l0.06489,-0.4542zm-181.03285,-469.12813c-5.25579,-80.45904 59.95496,-146.6431 134.96356,-153.13173c10.31693,92.78745 -84.35222,162.21581 -134.96356,153.13173z"/>
  </g>
 </g>
</svg>